<?xml version="1.0" encoding="UTF-8" standalone="no"?>
<!DOCTYPE svg PUBLIC "-//W3C//DTD SVG 1.1//EN"
 "http://www.w3.org/Graphics/SVG/1.1/DTD/svg11.dtd">
<!-- Generated by graphviz version 2.40.1 (20161225.0304)
 -->
<!-- Title: technologies Pages: 1 -->
<svg width="576pt" height="1628pt"
 viewBox="0.00 0.00 576.39 1628.00" xmlns="http://www.w3.org/2000/svg" xmlns:xlink="http://www.w3.org/1999/xlink">
<g id="graph0" class="graph" transform="scale(1 1) rotate(0) translate(4 1624)">
<title>technologies</title>
<polygon fill="#ffffff" stroke="transparent" points="-4,4 -4,-1624 572.3948,-1624 572.3948,4 -4,4"/>
<!-- algElegance -->
<g id="node1" class="node">
<title>algElegance</title>
<ellipse fill="none" stroke="#000000" cx="256.0433" cy="-1602" rx="70.6878" ry="18"/>
<text text-anchor="middle" x="256.0433" y="-1598.3" font-family="Times,serif" font-size="14.00" fill="#000000">Algorithmic Elegance</text>
</g>
<!-- ecol -->
<g id="node2" class="node">
<title>ecol</title>
<ellipse fill="none" stroke="#00688b" stroke-width="2" cx="335.0433" cy="-1530" rx="68.4888" ry="18"/>
<text text-anchor="middle" x="335.0433" y="-1526.3" font-family="Times,serif" font-size="14.00" fill="#00688b">0: Planetary Ecology</text>
</g>
<!-- algElegance&#45;&gt;ecol -->
<g id="edge1" class="edge">
<title>algElegance&#45;&gt;ecol</title>
<path fill="none" stroke="#000000" stroke-width="2" d="M275.1669,-1584.5708C285.0883,-1575.5286 297.3714,-1564.3338 308.2253,-1554.4417"/>
<polygon fill="#000000" stroke="#000000" stroke-width="2" points="310.7885,-1556.8411 315.8219,-1547.5182 306.0733,-1551.6675 310.7885,-1556.8411"/>
</g>
<!-- robProd -->
<g id="node6" class="node">
<title>robProd</title>
<ellipse fill="none" stroke="#000000" cx="204.0433" cy="-1242" rx="63.8893" ry="18"/>
<text text-anchor="middle" x="204.0433" y="-1238.3" font-family="Times,serif" font-size="14.00" fill="#000000">Robotic Production</text>
</g>
<!-- algElegance&#45;&gt;robProd -->
<g id="edge27" class="edge">
<title>algElegance&#45;&gt;robProd</title>
<path fill="none" stroke="#009acd" d="M239.1439,-1584.1115C220.7513,-1557.5989 195.0433,-1505.8441 195.0433,-1458 195.0433,-1458 195.0433,-1458 195.0433,-1386 195.0433,-1345.876 195.0433,-1299.4631 197.261,-1270.4177"/>
<polygon fill="#009acd" stroke="#009acd" points="200.7715,-1270.4694 198.2242,-1260.1854 193.8023,-1269.8133 200.7715,-1270.4694"/>
</g>
<!-- algElegance&#45;&gt;robProd -->
<g id="edge39" class="edge">
<title>algElegance&#45;&gt;robProd</title>
<path fill="none" stroke="#c0c0c0" d="M250.6834,-1583.6673C238.4664,-1557.0239 213.0433,-1505.5783 213.0433,-1458 213.0433,-1458 213.0433,-1458 213.0433,-1386 213.0433,-1345.876 213.0433,-1299.4631 210.8255,-1270.4177"/>
<polygon fill="#c0c0c0" stroke="#c0c0c0" points="214.2842,-1269.8133 209.8623,-1260.1854 207.315,-1270.4694 214.2842,-1269.8133"/>
</g>
<!-- md2 -->
<g id="node3" class="node">
<title>md2</title>
<ellipse fill="none" stroke="#000000" cx="422.0433" cy="-1458" rx="50.0912" ry="18"/>
<text text-anchor="middle" x="422.0433" y="-1454.3" font-family="Times,serif" font-size="14.00" fill="#000000">Mass Driver 2</text>
</g>
<!-- ecol&#45;&gt;md2 -->
<g id="edge2" class="edge">
<title>ecol&#45;&gt;md2</title>
<path fill="none" stroke="#000000" stroke-width="2" d="M356.1035,-1512.5708C367.5717,-1503.0799 381.9054,-1491.2175 394.2769,-1480.9791"/>
<polygon fill="#000000" stroke="#000000" stroke-width="2" points="396.601,-1483.5988 402.0735,-1474.5267 392.138,-1478.206 396.601,-1483.5988"/>
</g>
<!-- hab -->
<g id="node4" class="node">
<title>hab</title>
<ellipse fill="none" stroke="#000000" cx="379.0433" cy="-1386" rx="77.1866" ry="18"/>
<text text-anchor="middle" x="379.0433" y="-1382.3" font-family="Times,serif" font-size="14.00" fill="#000000">Subterranean Habitation</text>
</g>
<!-- ecol&#45;&gt;hab -->
<g id="edge23" class="edge">
<title>ecol&#45;&gt;hab</title>
<path fill="none" stroke="#009acd" d="M335.9427,-1511.7623C341.0322,-1486.9846 354.3757,-1442.4714 365.1654,-1413.5939"/>
<polygon fill="#009acd" stroke="#009acd" points="368.4988,-1414.6784 368.8576,-1404.0896 361.9739,-1412.1435 368.4988,-1414.6784"/>
</g>
<!-- ecol&#45;&gt;hab -->
<g id="edge36" class="edge">
<title>ecol&#45;&gt;hab</title>
<path fill="none" stroke="#c0c0c0" d="M345.1707,-1512.0535C355.1744,-1487.4774 369.0128,-1443.1008 375.9383,-1414.0974"/>
<polygon fill="#c0c0c0" stroke="#c0c0c0" points="379.3909,-1414.6955 378.1571,-1404.1727 372.5596,-1413.1681 379.3909,-1414.6955"/>
</g>
<!-- md2&#45;&gt;hab -->
<g id="edge3" class="edge">
<title>md2&#45;&gt;hab</title>
<path fill="none" stroke="#000000" stroke-width="2" d="M411.414,-1440.2022C406.4524,-1431.8944 400.4427,-1421.8316 394.9549,-1412.6427"/>
<polygon fill="#000000" stroke="#000000" stroke-width="2" points="397.8316,-1410.6334 389.6992,-1403.8425 391.8218,-1414.2226 397.8316,-1410.6334"/>
</g>
<!-- md3 -->
<g id="node5" class="node">
<title>md3</title>
<ellipse fill="none" stroke="#000000" cx="291.0433" cy="-1314" rx="50.0912" ry="18"/>
<text text-anchor="middle" x="291.0433" y="-1310.3" font-family="Times,serif" font-size="14.00" fill="#000000">Mass Driver 3</text>
</g>
<!-- hab&#45;&gt;md3 -->
<g id="edge4" class="edge">
<title>hab&#45;&gt;md3</title>
<path fill="none" stroke="#000000" stroke-width="2" d="M357.7409,-1368.5708C346.1409,-1359.0799 331.6424,-1347.2175 319.1288,-1336.9791"/>
<polygon fill="#000000" stroke="#000000" stroke-width="2" points="321.1985,-1334.1503 311.2426,-1330.5267 316.7658,-1339.568 321.1985,-1334.1503"/>
</g>
<!-- ecoManip -->
<g id="node24" class="node">
<title>ecoManip</title>
<ellipse fill="none" stroke="#000000" cx="449.0433" cy="-1314" rx="89.8845" ry="18"/>
<text text-anchor="middle" x="449.0433" y="-1310.3" font-family="Times,serif" font-size="14.00" fill="#000000">Advanced Eco&#45;Manipulation</text>
</g>
<!-- hab&#45;&gt;ecoManip -->
<g id="edge24" class="edge">
<title>hab&#45;&gt;ecoManip</title>
<path fill="none" stroke="#009acd" d="M390.7548,-1367.8314C398.5375,-1358.9346 408.9168,-1348.0939 418.8114,-1338.4789"/>
<polygon fill="#009acd" stroke="#009acd" points="421.4005,-1340.8466 426.2323,-1331.4177 416.5752,-1335.7755 421.4005,-1340.8466"/>
</g>
<!-- hab&#45;&gt;ecoManip -->
<g id="edge37" class="edge">
<title>hab&#45;&gt;ecoManip</title>
<path fill="none" stroke="#c0c0c0" d="M401.8665,-1368.5708C411.1674,-1359.922 421.6978,-1349.3039 430.5185,-1339.74"/>
<polygon fill="#c0c0c0" stroke="#c0c0c0" points="433.3763,-1341.7964 437.4611,-1332.0206 428.1716,-1337.1154 433.3763,-1341.7964"/>
</g>
<!-- md3&#45;&gt;robProd -->
<g id="edge5" class="edge">
<title>md3&#45;&gt;robProd</title>
<path fill="none" stroke="#000000" stroke-width="2" d="M270.865,-1297.3008C259.5002,-1287.8954 245.12,-1275.9946 232.6136,-1265.6444"/>
<polygon fill="#000000" stroke="#000000" stroke-width="2" points="234.6517,-1262.788 224.7162,-1259.1086 230.1887,-1268.1807 234.6517,-1262.788"/>
</g>
<!-- milRobCtrl -->
<g id="node7" class="node">
<title>milRobCtrl</title>
<ellipse fill="none" stroke="#00688b" stroke-width="2" cx="204.0433" cy="-1170" rx="85.5853" ry="18"/>
<text text-anchor="middle" x="204.0433" y="-1166.3" font-family="Times,serif" font-size="14.00" fill="#00688b">7: Military Robotic Control</text>
</g>
<!-- robProd&#45;&gt;milRobCtrl -->
<g id="edge6" class="edge">
<title>robProd&#45;&gt;milRobCtrl</title>
<path fill="none" stroke="#000000" stroke-width="2" d="M198.0909,-1223.8314C197.3404,-1216.131 197.1195,-1206.9743 197.4282,-1198.4166"/>
<polygon fill="#000000" stroke="#000000" stroke-width="2" points="200.9225,-1198.6161 198.0672,-1188.4133 193.9367,-1198.1697 200.9225,-1198.6161"/>
</g>
<!-- robProd&#45;&gt;milRobCtrl -->
<g id="edge43" class="edge">
<title>robProd&#45;&gt;milRobCtrl</title>
<path fill="none" stroke="#c0c0c0" d="M209.9956,-1223.8314C210.7461,-1216.131 210.967,-1206.9743 210.6583,-1198.4166"/>
<polygon fill="#c0c0c0" stroke="#c0c0c0" points="214.1498,-1198.1697 210.0193,-1188.4133 207.164,-1198.6161 214.1498,-1198.1697"/>
</g>
<!-- nascentAI -->
<g id="node9" class="node">
<title>nascentAI</title>
<ellipse fill="none" stroke="#00688b" stroke-width="2" cx="374.0433" cy="-1026" rx="100.1823" ry="18"/>
<text text-anchor="middle" x="374.0433" y="-1022.3" font-family="Times,serif" font-size="14.00" fill="#00688b">2: Nascent Artificial Intelligence</text>
</g>
<!-- robProd&#45;&gt;nascentAI -->
<g id="edge28" class="edge">
<title>robProd&#45;&gt;nascentAI</title>
<path fill="none" stroke="#009acd" d="M233.4348,-1225.9068C251.1825,-1216.6494 273.3204,-1203.7256 290.0433,-1188 329.2931,-1151.0909 349.8212,-1089.6066 361.7731,-1053.9431"/>
<polygon fill="#009acd" stroke="#009acd" points="365.1849,-1054.7793 365.0715,-1044.185 358.5535,-1052.5376 365.1849,-1054.7793"/>
</g>
<!-- robProd&#45;&gt;nascentAI -->
<g id="edge40" class="edge">
<title>robProd&#45;&gt;nascentAI</title>
<path fill="none" stroke="#c0c0c0" d="M244.718,-1228.1264C265.4864,-1218.7664 289.9384,-1205.0252 308.0433,-1188 347.1246,-1151.2493 367.6446,-1090.134 374.0546,-1054.4037"/>
<polygon fill="#c0c0c0" stroke="#c0c0c0" points="377.5652,-1054.5952 375.5958,-1044.185 370.6435,-1053.5512 377.5652,-1054.5952"/>
</g>
<!-- indCents -->
<g id="node21" class="node">
<title>indCents</title>
<ellipse fill="none" stroke="#00688b" stroke-width="2" cx="76.0433" cy="-162" rx="66.0889" ry="18"/>
<text text-anchor="middle" x="76.0433" y="-158.3" font-family="Times,serif" font-size="14.00" fill="#00688b">4: Industrial Centers</text>
</g>
<!-- robProd&#45;&gt;indCents -->
<g id="edge42" class="edge">
<title>robProd&#45;&gt;indCents</title>
<path fill="none" stroke="#c0c0c0" d="M158.7758,-1229.087C103.4326,-1210.1993 17.0433,-1169.2974 17.0433,-1098 17.0433,-1098 17.0433,-1098 17.0433,-306 17.0433,-262.3084 40.5879,-216.353 57.9303,-188.4296"/>
<polygon fill="#c0c0c0" stroke="#c0c0c0" points="61.0873,-189.9897 63.5309,-179.6805 55.1917,-186.2158 61.0873,-189.9897"/>
</g>
<!-- md4 -->
<g id="node8" class="node">
<title>md4</title>
<ellipse fill="none" stroke="#000000" cx="287.0433" cy="-1098" rx="50.0912" ry="18"/>
<text text-anchor="middle" x="287.0433" y="-1094.3" font-family="Times,serif" font-size="14.00" fill="#000000">Mass Driver 4</text>
</g>
<!-- milRobCtrl&#45;&gt;md4 -->
<g id="edge7" class="edge">
<title>milRobCtrl&#45;&gt;md4</title>
<path fill="none" stroke="#000000" stroke-width="2" d="M224.5601,-1152.2022C235.2473,-1142.9315 248.4539,-1131.4751 259.9684,-1121.4867"/>
<polygon fill="#000000" stroke="#000000" stroke-width="2" points="262.3574,-1124.0476 267.6178,-1114.851 257.7704,-1118.7599 262.3574,-1124.0476"/>
</g>
<!-- spatialFluxDrive -->
<g id="node28" class="node">
<title>spatialFluxDrive</title>
<ellipse fill="none" stroke="#000000" cx="158.0433" cy="-1098" rx="61.1893" ry="18"/>
<text text-anchor="middle" x="158.0433" y="-1094.3" font-family="Times,serif" font-size="14.00" fill="#000000">Spatial Flux Drive</text>
</g>
<!-- milRobCtrl&#45;&gt;spatialFluxDrive -->
<g id="edge44" class="edge">
<title>milRobCtrl&#45;&gt;spatialFluxDrive</title>
<path fill="none" stroke="#c0c0c0" d="M192.4355,-1151.8314C187.1656,-1143.5829 180.8283,-1133.6635 175.0372,-1124.5992"/>
<polygon fill="#c0c0c0" stroke="#c0c0c0" points="177.8213,-1122.456 169.4879,-1115.9134 171.9224,-1126.2248 177.8213,-1122.456"/>
</g>
<!-- md4&#45;&gt;nascentAI -->
<g id="edge8" class="edge">
<title>md4&#45;&gt;nascentAI</title>
<path fill="none" stroke="#000000" stroke-width="2" d="M307.2215,-1081.3008C318.4216,-1072.0317 332.5503,-1060.339 344.928,-1050.0954"/>
<polygon fill="#000000" stroke="#000000" stroke-width="2" points="347.2882,-1052.6853 352.7607,-1043.6132 342.8252,-1047.2925 347.2882,-1052.6853"/>
</g>
<!-- nanoProd -->
<g id="node10" class="node">
<title>nanoProd</title>
<ellipse fill="none" stroke="#000000" cx="276.0433" cy="-954" rx="68.4888" ry="18"/>
<text text-anchor="middle" x="276.0433" y="-950.3" font-family="Times,serif" font-size="14.00" fill="#000000">Nanotech Production</text>
</g>
<!-- nascentAI&#45;&gt;nanoProd -->
<g id="edge9" class="edge">
<title>nascentAI&#45;&gt;nanoProd</title>
<path fill="none" stroke="#000000" stroke-width="2" d="M344.7106,-1008.7542C331.2048,-999.5399 315.386,-988.0513 302.2794,-977.9804"/>
<polygon fill="#000000" stroke="#000000" stroke-width="2" points="304.1466,-974.998 294.1097,-971.6053 299.8402,-980.5166 304.1466,-974.998"/>
</g>
<!-- nascentAI&#45;&gt;nanoProd -->
<g id="edge29" class="edge">
<title>nascentAI&#45;&gt;nanoProd</title>
<path fill="none" stroke="#009acd" d="M355.7343,-1008.2022C343.6204,-998.5944 327.4771,-986.6392 312.839,-976.4032"/>
<polygon fill="#009acd" stroke="#009acd" points="314.6549,-973.4039 304.4362,-970.6058 310.6796,-979.1656 314.6549,-973.4039"/>
</g>
<!-- ffHarm -->
<g id="node27" class="node">
<title>ffHarm</title>
<ellipse fill="none" stroke="#00688b" stroke-width="2" cx="254.0433" cy="-90" rx="81.4863" ry="18"/>
<text text-anchor="middle" x="254.0433" y="-86.3" font-family="Times,serif" font-size="14.00" fill="#00688b">5: Force&#45;Field Harmonics</text>
</g>
<!-- nascentAI&#45;&gt;ffHarm -->
<g id="edge41" class="edge">
<title>nascentAI&#45;&gt;ffHarm</title>
<path fill="none" stroke="#c0c0c0" d="M374.0433,-1007.8146C374.0433,-980.4983 374.0433,-927.25 374.0433,-882 374.0433,-882 374.0433,-882 374.0433,-234 374.0433,-181.4995 326.3868,-137.9816 291.139,-112.9748"/>
<polygon fill="#c0c0c0" stroke="#c0c0c0" points="292.7046,-109.8038 282.4816,-107.0218 288.7384,-115.5718 292.7046,-109.8038"/>
</g>
<!-- adaptAuto -->
<g id="node11" class="node">
<title>adaptAuto</title>
<ellipse fill="none" stroke="#000000" cx="276.0433" cy="-882" rx="70.3881" ry="18"/>
<text text-anchor="middle" x="276.0433" y="-878.3" font-family="Times,serif" font-size="14.00" fill="#000000">Adaptive Automation</text>
</g>
<!-- nanoProd&#45;&gt;adaptAuto -->
<g id="edge10" class="edge">
<title>nanoProd&#45;&gt;adaptAuto</title>
<path fill="none" stroke="#000000" stroke-width="2" d="M264.2118,-936.2022C262.6149,-928.2406 262.1643,-918.6671 262.8598,-909.7957"/>
<polygon fill="#000000" stroke="#000000" stroke-width="2" points="266.3341,-910.2208 264.2028,-899.8425 259.3969,-909.2847 266.3341,-910.2208"/>
</g>
<!-- nanoProd&#45;&gt;adaptAuto -->
<g id="edge30" class="edge">
<title>nanoProd&#45;&gt;adaptAuto</title>
<path fill="none" stroke="#009acd" d="M276.0433,-935.8314C276.0433,-928.131 276.0433,-918.9743 276.0433,-910.4166"/>
<polygon fill="#009acd" stroke="#009acd" points="279.5434,-910.4132 276.0433,-900.4133 272.5434,-910.4133 279.5434,-910.4132"/>
</g>
<!-- nanoProd&#45;&gt;adaptAuto -->
<g id="edge46" class="edge">
<title>nanoProd&#45;&gt;adaptAuto</title>
<path fill="none" stroke="#c0c0c0" d="M287.8747,-936.2022C289.4716,-928.2406 289.9222,-918.6671 289.2267,-909.7957"/>
<polygon fill="#c0c0c0" stroke="#c0c0c0" points="292.6896,-909.2847 287.8837,-899.8425 285.7524,-910.2208 292.6896,-909.2847"/>
</g>
<!-- orbConst -->
<g id="node12" class="node">
<title>orbConst</title>
<ellipse fill="none" stroke="#000000" cx="278.0433" cy="-810" rx="66.8882" ry="18"/>
<text text-anchor="middle" x="278.0433" y="-806.3" font-family="Times,serif" font-size="14.00" fill="#000000">Orbital Construction</text>
</g>
<!-- adaptAuto&#45;&gt;orbConst -->
<g id="edge11" class="edge">
<title>adaptAuto&#45;&gt;orbConst</title>
<path fill="none" stroke="#000000" stroke-width="2" d="M276.5479,-863.8314C276.7618,-856.131 277.0162,-846.9743 277.2539,-838.4166"/>
<polygon fill="#000000" stroke="#000000" stroke-width="2" points="280.7527,-838.5066 277.5318,-828.4133 273.7554,-838.3122 280.7527,-838.5066"/>
</g>
<!-- exobots -->
<g id="node26" class="node">
<title>exobots</title>
<ellipse fill="none" stroke="#00688b" stroke-width="2" cx="153.0433" cy="-810" rx="40.0939" ry="18"/>
<text text-anchor="middle" x="153.0433" y="-806.3" font-family="Times,serif" font-size="14.00" fill="#00688b">3: Exobots</text>
</g>
<!-- adaptAuto&#45;&gt;exobots -->
<g id="edge31" class="edge">
<title>adaptAuto&#45;&gt;exobots</title>
<path fill="none" stroke="#009acd" d="M243.0255,-866.0209C224.0674,-855.6247 200.5746,-841.9623 182.2829,-830.7327"/>
<polygon fill="#009acd" stroke="#009acd" points="184.1051,-827.7443 173.7638,-825.4403 180.4111,-833.6903 184.1051,-827.7443"/>
</g>
<!-- adaptAuto&#45;&gt;exobots -->
<g id="edge47" class="edge">
<title>adaptAuto&#45;&gt;exobots</title>
<path fill="none" stroke="#c0c0c0" d="M252.7339,-864.937C234.9379,-853.83 210.2538,-839.3609 189.8378,-828.0602"/>
<polygon fill="#c0c0c0" stroke="#c0c0c0" points="191.2507,-824.8436 180.7979,-823.1144 187.8909,-830.9846 191.2507,-824.8436"/>
</g>
<!-- fusGen -->
<g id="node13" class="node">
<title>fusGen</title>
<ellipse fill="none" stroke="#000000" cx="201.0433" cy="-738" rx="61.1893" ry="18"/>
<text text-anchor="middle" x="201.0433" y="-734.3" font-family="Times,serif" font-size="14.00" fill="#000000">Fusion Generation</text>
</g>
<!-- orbConst&#45;&gt;fusGen -->
<g id="edge12" class="edge">
<title>orbConst&#45;&gt;fusGen</title>
<path fill="none" stroke="#000000" stroke-width="2" d="M259.4037,-792.5708C249.6619,-783.4616 237.5839,-772.1679 226.9474,-762.2221"/>
<polygon fill="#000000" stroke="#000000" stroke-width="2" points="229.2059,-759.5422 219.5112,-755.2687 224.4249,-764.6551 229.2059,-759.5422"/>
</g>
<!-- orbGen -->
<g id="node14" class="node">
<title>orbGen</title>
<ellipse fill="none" stroke="#000000" cx="211.0433" cy="-666" rx="62.2891" ry="18"/>
<text text-anchor="middle" x="211.0433" y="-662.3" font-family="Times,serif" font-size="14.00" fill="#000000">Orbital Generation</text>
</g>
<!-- orbConst&#45;&gt;orbGen -->
<g id="edge48" class="edge">
<title>orbConst&#45;&gt;orbGen</title>
<path fill="none" stroke="#c0c0c0" d="M280.4438,-791.7199C282.0871,-772.7657 282.2646,-742.7746 271.0433,-720 265.1295,-707.9975 255.2811,-697.4367 245.2556,-688.9116"/>
<polygon fill="#c0c0c0" stroke="#c0c0c0" points="247.2486,-686.0242 237.2491,-682.5225 242.8824,-691.4956 247.2486,-686.0242"/>
</g>
<!-- fusGen&#45;&gt;orbGen -->
<g id="edge13" class="edge">
<title>fusGen&#45;&gt;orbGen</title>
<path fill="none" stroke="#000000" stroke-width="2" d="M203.5667,-719.8314C204.6362,-712.131 205.9079,-702.9743 207.0965,-694.4166"/>
<polygon fill="#000000" stroke="#000000" stroke-width="2" points="210.5768,-694.7997 208.4859,-684.4133 203.6434,-693.8367 210.5768,-694.7997"/>
</g>
<!-- microInd -->
<g id="node15" class="node">
<title>microInd</title>
<ellipse fill="none" stroke="#000000" cx="211.0433" cy="-594" rx="71.4873" ry="18"/>
<text text-anchor="middle" x="211.0433" y="-590.3" font-family="Times,serif" font-size="14.00" fill="#000000">Microgravity Industry</text>
</g>
<!-- orbGen&#45;&gt;microInd -->
<g id="edge14" class="edge">
<title>orbGen&#45;&gt;microInd</title>
<path fill="none" stroke="#000000" stroke-width="2" d="M211.0433,-647.8314C211.0433,-640.131 211.0433,-630.9743 211.0433,-622.4166"/>
<polygon fill="#000000" stroke="#000000" stroke-width="2" points="214.5434,-622.4132 211.0433,-612.4133 207.5434,-622.4133 214.5434,-622.4132"/>
</g>
<!-- actRadar -->
<g id="node16" class="node">
<title>actRadar</title>
<ellipse fill="none" stroke="#00688b" stroke-width="2" cx="203.0433" cy="-522" rx="53.8905" ry="18"/>
<text text-anchor="middle" x="203.0433" y="-518.3" font-family="Times,serif" font-size="14.00" fill="#00688b">6: Active Radar</text>
</g>
<!-- microInd&#45;&gt;actRadar -->
<g id="edge15" class="edge">
<title>microInd&#45;&gt;actRadar</title>
<path fill="none" stroke="#000000" stroke-width="2" d="M209.0245,-575.8314C208.1689,-568.131 207.1515,-558.9743 206.2007,-550.4166"/>
<polygon fill="#000000" stroke="#000000" stroke-width="2" points="209.6722,-549.9656 205.0892,-540.4133 202.715,-550.7386 209.6722,-549.9656"/>
</g>
<!-- actRadar&#45;&gt;milRobCtrl -->
<g id="edge35" class="edge">
<title>actRadar&#45;&gt;milRobCtrl</title>
<path fill="none" stroke="#009acd" d="M175.8117,-537.8184C161.1041,-547.4084 143.4681,-560.7284 131.0433,-576 80.852,-637.691 55.0433,-658.4705 55.0433,-738 55.0433,-1026 55.0433,-1026 55.0433,-1026 55.0433,-1068.6041 59.2128,-1084.6326 88.0433,-1116 102.6411,-1131.8824 122.8558,-1143.4857 142.3254,-1151.7708"/>
<polygon fill="#009acd" stroke="#009acd" points="141.2115,-1155.0951 151.7955,-1155.5757 143.8213,-1148.5998 141.2115,-1155.0951"/>
</g>
<!-- laser1 -->
<g id="node17" class="node">
<title>laser1</title>
<ellipse fill="none" stroke="#000000" cx="180.0433" cy="-450" rx="31.3957" ry="18"/>
<text text-anchor="middle" x="180.0433" y="-446.3" font-family="Times,serif" font-size="14.00" fill="#000000">Laser 1</text>
</g>
<!-- actRadar&#45;&gt;laser1 -->
<g id="edge16" class="edge">
<title>actRadar&#45;&gt;laser1</title>
<path fill="none" stroke="#000000" stroke-width="2" d="M197.2394,-503.8314C194.6868,-495.8406 191.6333,-486.2819 188.8124,-477.4514"/>
<polygon fill="#000000" stroke="#000000" stroke-width="2" points="192.1426,-476.3741 185.7656,-467.9134 185.4746,-478.5043 192.1426,-476.3741"/>
</g>
<!-- symbBio -->
<g id="node18" class="node">
<title>symbBio</title>
<ellipse fill="none" stroke="#000000" cx="164.0433" cy="-378" rx="62.2891" ry="18"/>
<text text-anchor="middle" x="164.0433" y="-374.3" font-family="Times,serif" font-size="14.00" fill="#000000">Symbiotic Biology</text>
</g>
<!-- laser1&#45;&gt;symbBio -->
<g id="edge17" class="edge">
<title>laser1&#45;&gt;symbBio</title>
<path fill="none" stroke="#000000" stroke-width="2" d="M176.0058,-431.8314C174.2946,-424.131 172.2598,-414.9743 170.3581,-406.4166"/>
<polygon fill="#000000" stroke="#000000" stroke-width="2" points="173.7211,-405.4159 168.1351,-396.4133 166.8878,-406.9344 173.7211,-405.4159"/>
</g>
<!-- laser2 -->
<g id="node19" class="node">
<title>laser2</title>
<ellipse fill="none" stroke="#000000" cx="156.0433" cy="-306" rx="31.3957" ry="18"/>
<text text-anchor="middle" x="156.0433" y="-302.3" font-family="Times,serif" font-size="14.00" fill="#000000">Laser 2</text>
</g>
<!-- symbBio&#45;&gt;laser2 -->
<g id="edge18" class="edge">
<title>symbBio&#45;&gt;laser2</title>
<path fill="none" stroke="#000000" stroke-width="2" d="M162.0245,-359.8314C161.1689,-352.131 160.1515,-342.9743 159.2007,-334.4166"/>
<polygon fill="#000000" stroke="#000000" stroke-width="2" points="162.6722,-333.9656 158.0892,-324.4133 155.715,-334.7386 162.6722,-333.9656"/>
</g>
<!-- laser3 -->
<g id="node20" class="node">
<title>laser3</title>
<ellipse fill="none" stroke="#000000" cx="141.0433" cy="-234" rx="31.3957" ry="18"/>
<text text-anchor="middle" x="141.0433" y="-230.3" font-family="Times,serif" font-size="14.00" fill="#000000">Laser 3</text>
</g>
<!-- laser2&#45;&gt;laser3 -->
<g id="edge19" class="edge">
<title>laser2&#45;&gt;laser3</title>
<path fill="none" stroke="#000000" stroke-width="2" d="M152.2581,-287.8314C150.6113,-279.9266 148.6448,-270.4872 146.8217,-261.7365"/>
<polygon fill="#000000" stroke="#000000" stroke-width="2" points="150.2413,-260.9894 144.7752,-251.9134 143.3884,-262.4171 150.2413,-260.9894"/>
</g>
<!-- laser3&#45;&gt;indCents -->
<g id="edge20" class="edge">
<title>laser3&#45;&gt;indCents</title>
<path fill="none" stroke="#000000" stroke-width="2" d="M126.6176,-218.0209C118.4513,-208.975 108.0525,-197.4564 98.8105,-187.2191"/>
<polygon fill="#000000" stroke="#000000" stroke-width="2" points="101.3237,-184.7798 92.0247,-179.7025 96.1278,-189.4706 101.3237,-184.7798"/>
</g>
<!-- zortPlat -->
<g id="node22" class="node">
<title>zortPlat</title>
<ellipse fill="none" stroke="#000000" cx="76.0433" cy="-90" rx="76.0865" ry="18"/>
<text text-anchor="middle" x="76.0433" y="-86.3" font-family="Times,serif" font-size="14.00" fill="#000000">Zortrium Armor Plating</text>
</g>
<!-- indCents&#45;&gt;zortPlat -->
<g id="edge21" class="edge">
<title>indCents&#45;&gt;zortPlat</title>
<path fill="none" stroke="#000000" stroke-width="2" d="M76.0433,-143.8314C76.0433,-136.131 76.0433,-126.9743 76.0433,-118.4166"/>
<polygon fill="#000000" stroke="#000000" stroke-width="2" points="79.5434,-118.4132 76.0433,-108.4133 72.5434,-118.4133 79.5434,-118.4132"/>
</g>
<!-- indCents&#45;&gt;ffHarm -->
<g id="edge33" class="edge">
<title>indCents&#45;&gt;ffHarm</title>
<path fill="none" stroke="#009acd" d="M113.3579,-146.9064C140.1022,-136.0885 176.3756,-121.4161 205.3912,-109.6795"/>
<polygon fill="#009acd" stroke="#009acd" points="206.9709,-112.8161 214.9288,-105.8216 204.346,-106.3268 206.9709,-112.8161"/>
</g>
<!-- laser4 -->
<g id="node23" class="node">
<title>laser4</title>
<ellipse fill="none" stroke="#000000" cx="76.0433" cy="-18" rx="31.3957" ry="18"/>
<text text-anchor="middle" x="76.0433" y="-14.3" font-family="Times,serif" font-size="14.00" fill="#000000">Laser 4</text>
</g>
<!-- zortPlat&#45;&gt;laser4 -->
<g id="edge22" class="edge">
<title>zortPlat&#45;&gt;laser4</title>
<path fill="none" stroke="#000000" stroke-width="2" d="M76.0433,-71.8314C76.0433,-64.131 76.0433,-54.9743 76.0433,-46.4166"/>
<polygon fill="#000000" stroke="#000000" stroke-width="2" points="79.5434,-46.4132 76.0433,-36.4133 72.5434,-46.4133 79.5434,-46.4132"/>
</g>
<!-- terraforming -->
<g id="node25" class="node">
<title>terraforming</title>
<ellipse fill="none" stroke="#00688b" stroke-width="2" cx="449.0433" cy="-1242" rx="54.6905" ry="18"/>
<text text-anchor="middle" x="449.0433" y="-1238.3" font-family="Times,serif" font-size="14.00" fill="#00688b">1: Terraforming</text>
</g>
<!-- ecoManip&#45;&gt;terraforming -->
<g id="edge25" class="edge">
<title>ecoManip&#45;&gt;terraforming</title>
<path fill="none" stroke="#009acd" d="M443.0909,-1295.8314C442.3289,-1288.0125 442.1129,-1278.6923 442.4428,-1270.0221"/>
<polygon fill="#009acd" stroke="#009acd" points="445.9437,-1270.1239 443.116,-1259.9134 438.9591,-1269.6587 445.9437,-1270.1239"/>
</g>
<!-- ecoManip&#45;&gt;terraforming -->
<g id="edge38" class="edge">
<title>ecoManip&#45;&gt;terraforming</title>
<path fill="none" stroke="#c0c0c0" d="M454.9956,-1295.8314C455.7576,-1288.0125 455.9736,-1278.6923 455.6437,-1270.0221"/>
<polygon fill="#c0c0c0" stroke="#c0c0c0" points="459.1274,-1269.6587 454.9705,-1259.9134 452.1428,-1270.1239 459.1274,-1269.6587"/>
</g>
<!-- terraforming&#45;&gt;algElegance -->
<g id="edge26" class="edge">
<title>terraforming&#45;&gt;algElegance</title>
<path fill="none" stroke="#009acd" d="M488.806,-1254.526C509.4873,-1263.0323 533.4332,-1276.367 548.0433,-1296 572.4495,-1328.797 567.0433,-1345.1184 567.0433,-1386 567.0433,-1458 567.0433,-1458 567.0433,-1458 567.0433,-1512.4826 407.8876,-1562.7074 317.2867,-1586.8845"/>
<polygon fill="#009acd" stroke="#009acd" points="316.1753,-1583.5579 307.3986,-1589.4925 317.9605,-1590.3264 316.1753,-1583.5579"/>
</g>
<!-- exobots&#45;&gt;indCents -->
<g id="edge32" class="edge">
<title>exobots&#45;&gt;indCents</title>
<path fill="none" stroke="#009acd" d="M144.5889,-792.2708C124.209,-747.851 74.0433,-627.7678 74.0433,-522 74.0433,-522 74.0433,-522 74.0433,-306 74.0433,-265.8721 74.8294,-219.4602 75.4159,-190.416"/>
<polygon fill="#009acd" stroke="#009acd" points="78.9199,-190.255 75.6289,-180.1843 71.9214,-190.1092 78.9199,-190.255"/>
</g>
<!-- ffHarm&#45;&gt;actRadar -->
<g id="edge34" class="edge">
<title>ffHarm&#45;&gt;actRadar</title>
<path fill="none" stroke="#009acd" d="M254.0433,-108.1854C254.0433,-135.5017 254.0433,-188.75 254.0433,-234 254.0433,-378 254.0433,-378 254.0433,-378 254.0433,-420.8904 233.6911,-467.0569 218.7002,-495.2444"/>
<polygon fill="#009acd" stroke="#009acd" points="215.593,-493.6317 213.859,-504.0837 221.7325,-496.9942 215.593,-493.6317"/>
</g>
<!-- nrMaint -->
<g id="node29" class="node">
<title>nrMaint</title>
<ellipse fill="none" stroke="#000000" cx="169.0433" cy="-1026" rx="86.3847" ry="18"/>
<text text-anchor="middle" x="169.0433" y="-1022.3" font-family="Times,serif" font-size="14.00" fill="#000000">Nano&#45;Robotic Maintenance</text>
</g>
<!-- spatialFluxDrive&#45;&gt;nrMaint -->
<g id="edge45" class="edge">
<title>spatialFluxDrive&#45;&gt;nrMaint</title>
<path fill="none" stroke="#c0c0c0" d="M160.819,-1079.8314C161.9955,-1072.131 163.3944,-1062.9743 164.7018,-1054.4166"/>
<polygon fill="#c0c0c0" stroke="#c0c0c0" points="168.1796,-1054.8272 166.2301,-1044.4133 161.2599,-1053.7699 168.1796,-1054.8272"/>
</g>
</g>
</svg>
